<?xml version="1.0" encoding="UTF-8" standalone="no"?> <svg xmlns="http://www.w3.org/2000/svg" viewBox="0 0 64 64"><g id="Layer_8" data-name="Layer 8"><polygon points="32 37 42 31 32 15 22 31 32 37" style="fill:none;stroke:#000;stroke-linejoin:round;stroke-width:2px"/><polygon points="32 49 42 35 32 41 22 35 32 49" style="fill:none;stroke:#000;stroke-linejoin:round;stroke-width:2px"/><line x1="32" y1="41" x2="32" y2="49" style="fill:none;stroke:#000;stroke-linejoin:round;stroke-width:2px"/><polyline points="22 31 32 28 42 31" style="fill:none;stroke:#000;stroke-linejoin:round;stroke-width:2px"/><line x1="32" y1="15" x2="32" y2="28" style="fill:none;stroke:#000;stroke-linejoin:round;stroke-width:2px"/><path d="M32,62h0A48.374,48.374,0,0,0,56,20.215V10h0A39.981,39.981,0,0,1,32.486,2.354L32,2l-.486.354A39.981,39.981,0,0,1,8,10H8V20.215A48.374,48.374,0,0,0,32,62Z" style="fill:none;stroke:#000;stroke-linejoin:round;stroke-width:2px"/><path d="M32,57h0A43.955,43.955,0,0,0,52,20.146V14h0A31.719,31.719,0,0,1,33.808,8.265L32,7,30.192,8.265A31.719,31.719,0,0,1,12,14h0v6.146A43.955,43.955,0,0,0,32,57Z" style="fill:none;stroke:#000;stroke-linejoin:round;stroke-width:2px"/></g></svg>